Patient4_TMGait_0pt5_02_right_19_GRF.mot
version=1
nRows=26
nColumns=19
inDegrees=no
endheader
time	F1x	F1y	F1z	M1x	M1y	M1z	F2x	F2y	F2z	M2x	M2y	M2z	EC1x	EC1y	EC1z	EC2x	EC2y	EC2z
24.74	1.3746	765.8354	61.46	-282.4348	-47.0246	609.6284	-8.2611	12.341	7.4399	2.0922	-2.4518	9.4798	-0.0592	0.0182	-0.0073	-0.0462	0.0165	0.9585
24.7523	3.1608	756.1211	64.7631	-278.9229	-48.7931	601.9194	-5.6306	9.0433	5.0275	1.6945	-1.6065	7.1494	-0.0592	0.0182	-0.0073	-0.0462	0.0165	0.9585
24.7646	4.9669	744.5506	67.1563	-274.6882	-49.7444	592.0419	-3.4249	6.3097	2.971	1.3855	-0.88563	5.2321	-0.0592	0.0182	-0.0073	-0.0462	0.0165	0.9585
24.7769	6.6989	732.1451	68.5537	-270.0972	-49.8657	580.8008	-1.7624	4.279	1.3819	1.175	-0.31637	3.8181	-0.0592	0.0182	-0.0073	-0.0462	0.0165	0.9585
24.7891	8.3343	720.1593	69.0504	-265.6195	-49.2652	569.2623	-0.6357	2.9184	0.27545	1.0512	0.092134	2.8802	-0.0592	0.0182	-0.0073	-0.0462	0.0165	0.9585
24.8014	9.8676	709.8076	68.8977	-261.7202	-48.1686	558.498	0.034072	2.1076	-0.41869	0.99031	0.36911	2.3268	-0.0592	0.0182	-0.0073	-0.0462	0.0165	0.9585
24.8137	11.3236	702.0932	68.3386	-258.7863	-46.7737	549.379	0.34307	1.6914	-0.78859	0.96496	0.54258	2.0402	-0.0592	0.0182	-0.0073	-0.0462	0.0165	0.9585
24.826	12.7294	697.6904	67.6311	-257.0813	-45.2846	542.4908	0.38033	1.4918	-0.93134	0.94137	0.65025	1.8958	-0.0592	0.0182	-0.0073	-0.0462	0.0165	0.9585
24.8383	14.1472	696.9295	66.9343	-256.7439	-43.8099	538.1044	0.23646	1.3328	-0.9294	0.88169	0.7168	1.7626	-0.0592	0.0182	-0.0073	-0.0462	0.0165	0.9585
24.8506	15.6567	699.8141	66.3645	-257.7918	-42.4192	536.2112	-0.028005	1.0468	-0.85013	0.74447	0.76272	1.5122	-0.0592	0.0182	-0.0073	-0.0462	0.0165	0.9585
24.8629	17.3578	706.0661	65.9354	-260.1355	-41.0918	536.5656	-0.35724	0.47254	-0.74214	0.48512	0.80249	0.9987	-0.0592	0.0182	-0.0073	-0.0462	0.0165	0.9585
24.8751	19.3459	715.155	65.6246	-263.5878	-39.7825	538.7413	-0.70016	-0.52404	-0.63077	0.062245	0.83474	0.098133	-0.0592	0.0182	-0.0073	-0.0462	0.0165	0.9585
24.8874	21.7099	726.3384	65.3603	-267.8793	-38.41	542.1606	-0.97879	-2.0313	-0.53844	-0.55052	0.84943	-1.2744	-0.0592	0.0182	-0.0073	-0.0462	0.0165	0.9585
24.8997	24.4962	738.6763	65.0635	-272.6596	-36.9028	546.1346	-1.1037	-4.0485	-0.47105	-1.3515	0.81933	-3.1151	-0.0592	0.0182	-0.0073	-0.0462	0.0165	0.9585
24.912	27.7134	751.0628	64.6604	-277.5078	-35.2083	549.9001	-0.93965	-6.4348	-0.43103	-2.288	0.70147	-5.3067	-0.0592	0.0182	-0.0073	-0.0462	0.0165	0.9585
24.9243	31.3115	762.2793	64.0915	-281.9512	-33.3017	552.6643	-0.32113	-8.8233	-0.41998	-3.2227	0.44032	-7.5136	-0.0592	0.0182	-0.0073	-0.0462	0.0165	0.9585
24.9366	35.1778	771.0767	63.3207	-285.4995	-31.1992	553.6662	0.95489	-10.5442	-0.44128	-3.9003	-0.034017	-9.1331	-0.0592	0.0182	-0.0073	-0.0462	0.0165	0.9585
24.9489	39.1425	776.3027	62.311	-287.695	-28.9274	552.2553	3.0946	-10.5261	-0.5043	-3.914	-0.7849	-9.1984	-0.0592	0.0182	-0.0073	-0.0462	0.0165	0.9585
24.9611	43.0321	777.0669	61.0597	-288.1786	-26.5406	547.9868	6.2652	-7.2544	-0.61293	-2.6864	-1.8654	-6.3387	-0.0592	0.0182	-0.0073	-0.0462	0.0165	0.9585
24.9734	46.6845	772.8801	59.5333	-286.7486	-24.064	540.6841	10.5007	1.2379	-0.77681	0.53249	-3.2741	1.2329	-0.0592	0.0182	-0.0073	-0.0462	0.0165	0.9585
24.9857	49.9964	763.6583	57.7227	-283.3618	-21.5314	530.4024	15.5913	17.238	-0.99742	6.6147	-4.9227	15.5977	-0.0592	0.0182	-0.0073	-0.0462	0.0165	0.9585
24.998	52.9171	749.6095	55.5982	-278.0979	-18.933	517.3288	20.9215	43.0165	-1.2621	16.4276	-6.5892	38.8368	-0.0592	0.0182	-0.0073	-0.0462	0.0165	0.9585
25.0103	55.4267	731.0004	53.1882	-271.0699	-16.2971	501.6409	25.3012	80.2285	-1.5361	30.6066	-7.8599	72.5084	-0.0592	0.0182	-0.0073	-0.0462	0.0165	0.9585
25.0226	57.4972	707.9051	50.5297	-262.3337	-13.6539	483.3599	26.9361	129.1272	-1.7481	49.2561	-8.1349	116.9374	-0.0592	0.0182	-0.0073	-0.0462	0.0165	0.9585
25.0349	59.0472	680.0875	47.7068	-251.8348	-11.0943	462.2956	23.9138	187.7849	-1.794	71.6495	-6.8132	170.4854	-0.0592	0.0182	-0.0073	-0.0462	0.0165	0.9585
25.0471	59.912	647.0748	44.7785	-239.4309	-8.7156	438.1086	15.3648	251.5327	-1.6907	96.0046	-3.5883	228.9932	-0.0592	0.0182	-0.0073	-0.0462	0.0165	0.9585
